# xmcd
#
# Track frame offsets:
#	150
#	51298
#	76732
#	106782
#	135022
#	164328
#	250272
#
# Disc length: 3917 seconds
#
# Revision: 0
# Processed by: cddbd v1.5.1PL0 Copyright (c) Steve Scherf et al.
# Submitted via: dBpowerAMP V4.0
#
DISCID=480f4b07
DTITLE=Eric Clapton - Live At The Fillmore-disc 2
DYEAR=1900
DGENRE=Blues
TTITLE0=tell The Truth
TTITLE1=Nobody Knows You When You're Down And Out
TTITLE2=Roll It Over
TTITLE3=Presence Of The Lord
TTITLE4=Little Wing
TTITLE5=Lit It Rain
TTITLE6=Crossroads
EXTD=
EXTT0=
EXTT1=
EXTT2=
EXTT3=
EXTT4=
EXTT5=
EXTT6=
PLAYORDER=
